<svg id="Layer_1" enable-background="new 0 0 512 512" height="512" viewBox="0 0 512 512" width="512" xmlns="http://www.w3.org/2000/svg"><g id="XMLID_1775_"><g id="XMLID_1361_"><path id="XMLID_896_" d="m454 502h-396c-26.51 0-48-21.49-48-48v-396c0-26.51 21.49-48 48-48h396c26.51 0 48 21.49 48 48v396c0 26.51-21.49 48-48 48z" fill="#33d6f5"/></g><g id="XMLID_1360_"><path id="XMLID_237_" d="m58 58h396v396h-396z" fill="#fff"/></g><g id="XMLID_868_"><g id="XMLID_1702_"><path id="XMLID_236_" d="m232 119.909h48v56h-48z" fill="#6d92ac"/></g><g id="XMLID_1701_"><path id="XMLID_235_" d="m349.378 257.681v-57.772c0-13.255-10.745-24-24-24h-138.756c-13.255 0-24 10.745-24 24v57.772z" fill="#99ebfa"/></g><g id="XMLID_1698_"><g id="XMLID_1700_"><path id="XMLID_18_" d="m256 217.909-116.844 51.337 30.236 100.662h86.841v-151.897z" fill="#6d92ac"/></g><g id="XMLID_1699_"><path id="XMLID_222_" d="m372.844 269.246-116.611-51.235v151.897h86.375z" fill="#6d92ac"/></g></g><g id="XMLID_1683_"><path id="XMLID_49_" d="m412.333 390.326c-17.268-17.268-45.265-17.268-62.533 0-17.268 17.268-45.265 17.268-62.533 0-17.268-17.268-45.265-17.268-62.533 0-17.268 17.268-45.265 17.268-62.533 0-17.268-17.268-45.265-17.268-62.533 0v-53.721c17.268-17.268 45.265-17.268 62.533 0 17.268 17.268 45.265 17.268 62.533 0 17.268-17.268 45.265-17.268 62.533 0 17.268 17.268 45.265 17.268 62.533 0 17.268-17.268 45.265-17.268 62.533 0z" fill="#ccf5fc"/></g><g id="XMLID_897_"><path id="XMLID_900_" d="m454 0h-396c-31.981 0-58 26.019-58 58v396c0 31.981 26.019 58 58 58h396c31.981 0 58-26.019 58-58v-396c0-31.981-26.019-58-58-58zm38 454c0 20.953-17.047 38-38 38h-396c-20.953 0-38-17.047-38-38v-396c0-20.953 17.047-38 38-38h396c20.953 0 38 17.047 38 38z"/><path id="XMLID_901_" d="m454 48h-396c-5.523 0-10 4.477-10 10v396c0 5.523 4.477 10 10 10h153.127c5.523 0 10-4.477 10-10s-4.477-10-10-10h-143.127v-376h376v376h-142.873c-5.522 0-10 4.477-10 10s4.478 10 10 10h152.873c5.522 0 10-4.477 10-10v-396c0-5.523-4.478-10-10-10z"/><path id="XMLID_902_" d="m256.13 444c-2.63 0-5.21 1.07-7.07 2.93-1.87 1.86-2.93 4.44-2.93 7.07s1.06 5.21 2.93 7.07c1.86 1.86 4.44 2.93 7.07 2.93s5.21-1.07 7.07-2.93c1.859-1.86 2.93-4.44 2.93-7.07s-1.07-5.21-2.93-7.07-4.44-2.93-7.07-2.93z"/><path id="XMLID_905_" d="m92.596 329.533c-3.905 3.905-3.905 10.237 0 14.143 3.905 3.905 10.237 3.905 14.143 0 13.341-13.342 35.05-13.342 48.391 0 21.14 21.139 55.537 21.139 76.675 0 6.463-6.463 15.056-10.022 24.196-10.022s17.732 3.56 24.195 10.022c10.241 10.24 23.856 15.88 38.338 15.88s28.098-5.64 38.338-15.88c6.463-6.463 15.056-10.022 24.195-10.022 9.141 0 17.732 3.56 24.195 10.022 3.905 3.906 10.235 3.906 14.143 0 3.905-3.905 3.905-10.237 0-14.142-10.24-10.241-23.855-15.88-38.338-15.88-4.586 0-9.083.569-13.416 1.667l14.655-42.838c1.682-4.917-.682-10.302-5.439-12.392l-17.488-7.684v-52.498c0-18.748-15.252-34-34-34h-35.379v-46c0-5.523-4.478-10-10-10h-48c-5.523 0-10 4.477-10 10v46h-35.378c-18.748 0-34 15.252-34 34v52.499l-17.488 7.684c-4.757 2.09-7.121 7.476-5.439 12.392l14.671 42.884c-17.936-4.558-37.762.158-51.77 14.165zm248.549 1.478c-6.252 5.521-14.197 8.544-22.611 8.544-9.14 0-17.732-3.56-24.195-10.022-7.841-7.842-17.665-12.974-28.338-14.953v-81.355l94.407 41.479zm-99.145-201.102h28v36h-28zm-69.378 70c0-7.72 6.28-14 14-14h138.756c7.72 0 14 6.28 14 14v43.711l-79.355-34.866c-2.563-1.126-5.482-1.125-8.045 0l-79.356 34.866zm73.378 33.316v81.355c-10.673 1.98-20.496 7.111-28.338 14.953-12.826 12.827-33.384 13.315-46.807 1.477l-19.262-56.305z"/><path id="XMLID_909_" d="m356.871 397.397c6.463-6.463 15.056-10.022 24.195-10.022 9.141 0 17.732 3.56 24.195 10.022 3.905 3.906 10.235 3.906 14.143 0 3.905-3.905 3.905-10.237 0-14.142-10.24-10.241-23.855-15.88-38.338-15.88-14.481 0-28.097 5.64-38.338 15.88-6.463 6.462-15.055 10.022-24.195 10.022s-17.732-3.56-24.195-10.022c-10.24-10.241-23.855-15.88-38.338-15.88-14.482 0-28.097 5.64-38.338 15.88-13.341 13.342-35.05 13.342-48.391 0-21.14-21.139-55.536-21.139-76.676 0-3.905 3.905-3.905 10.237 0 14.143 3.905 3.905 10.237 3.905 14.143 0 13.341-13.342 35.05-13.342 48.391 0 21.14 21.139 55.537 21.139 76.675 0 6.463-6.463 15.056-10.022 24.196-10.022s17.732 3.56 24.195 10.022c10.241 10.24 23.856 15.88 38.338 15.88 14.483-.001 28.098-5.641 38.338-15.881z"/></g></g></g></svg>