<svg id="Capa_1" enable-background="new 0 0 512 512" height="512" viewBox="0 0 512 512" width="512" xmlns="http://www.w3.org/2000/svg"><g><g><path d="m202.684 396.784v115.216h53.316l10-57.608-10-57.608z" fill="#b2705b"/><path d="m256 396.784h53.316v115.216h-53.316z" fill="#895140"/></g><g><path d="m45 15c-16.569 0-30 13.431-30 30v321.784c0 16.569 13.431 30 30 30h211l30-211.182-30-170.602z" fill="#e38651"/><path d="m467 15h-211v381.784h211c16.569 0 30-13.431 30-30v-321.784c0-16.569-13.431-30-30-30z" fill="#dd4e4e"/></g><g><path d="m45 381.784c-8.271 0-15-6.729-15-15v-321.784c0-8.271 6.729-15 15-15h211l10-15-10-15h-211c-24.813 0-45 20.187-45 45v321.784c0 24.813 20.187 45 45 45h211l10-15-10-15z" fill="#fff5f5"/><path d="m467 0h-211v30h211c8.271 0 15 6.729 15 15v321.784c0 8.271-6.729 15-15 15h-211v30h211c24.813 0 45-20.187 45-45v-321.784c0-24.813-20.187-45-45-45z" fill="#d4e4e4"/></g><g><g><circle cx="115.037" cy="182.565" fill="#fff5f5" r="31.102"/><circle cx="392.367" cy="182.565" fill="#d4e4e4" r="31.102"/><circle cx="198.883" cy="104.029" fill="#fff5f5" r="31.102"/><circle cx="313.117" cy="104.029" fill="#d4e4e4" r="31.102"/><g><path d="m197.915 240.926c-27.186.782-48.988 23.049-48.988 50.424 0 27.869 22.592 50.462 50.461 50.462 18.871-6.527 37.741-9.791 56.612-9.791l20-69.383-20-79.174c-31.873 0-57.746 25.669-58.085 57.462z" fill="#fff5f5"/><path d="m314.085 240.926c-.339-31.793-26.212-57.462-58.085-57.462v148.557c18.871 0 37.741 3.264 56.612 9.791 27.869 0 50.461-22.593 50.461-50.462 0-27.375-21.802-49.642-48.988-50.424z" fill="#d4e4e4"/></g></g></g></g></svg>