<?xml version="1.0" encoding="iso-8859-1"?>
<!-- Generator: Adobe Illustrator 19.0.0, SVG Export Plug-In . SVG Version: 6.00 Build 0)  -->
<svg version="1.1" id="Capa_1" xmlns="http://www.w3.org/2000/svg" xmlns:xlink="http://www.w3.org/1999/xlink" x="0px" y="0px"
	 viewBox="0 0 480.025 480.025" style="enable-background:new 0 0 480.025 480.025;" xml:space="preserve">
<path style="fill:#CFDFE8;" d="M456,136.013H280c-9.269-0.462-16.421-8.329-16-17.6V24.677c-0.589-8.545,5.806-15.974,14.344-16.664
	h179.312c8.538,0.69,14.933,8.119,14.344,16.664v93.736C472.421,127.684,465.269,135.551,456,136.013z"/>
<path style="fill:#FDBD40;" d="M8,184.013h464v32H8V184.013z"/>
<g>
	<path style="fill:#FFD782;" d="M24,216.013h32v256H24V216.013z"/>
	<path style="fill:#FFD782;" d="M296,216.013h160v256H296V216.013z"/>
</g>
<path style="fill:#D3843D;" d="M56,216.013h240v256H56V216.013z"/>
<circle style="fill:#FFD782;" cx="176" cy="72.013" r="48"/>
<path style="fill:#2D75BB;" d="M88,184.013c0-44.184,32.8-56,73.336-56h29.328c40.536,0,73.336,11.816,73.336,56"/>
<path style="fill:#7D8D9C;" d="M344,72.013h48v112h-48V72.013z"/>
<g>
	<path style="fill:#D3843D;" d="M416,240.013h40v16h-40V240.013z"/>
	<path style="fill:#D3843D;" d="M384,240.013h16v16h-16V240.013z"/>
</g>
<path style="fill:#7D8D9C;" d="M360,32.013h16v16h-16V32.013z"/>
<path d="M457.656,0.013H278.344c-12.96,0.685-22.938,11.7-22.344,24.664v93.736c-0.413,13.686,10.316,25.13,24,25.6h56v32h-64.36
	c-3.016-33.776-25.816-52.352-67.808-55.472c26.838-15.371,36.133-49.588,20.762-76.426s-49.588-36.133-76.426-20.762
	s-36.133,49.588-20.762,76.426c4.951,8.644,12.118,15.811,20.762,20.762c-41.992,3.12-64.8,21.696-67.808,55.472H8
	c-4.418,0-8,3.582-8,8v32c0,4.418,3.582,8,8,8h8v248c0,4.418,3.582,8,8,8h432c4.418,0,8-3.582,8-8v-248h8c4.418,0,8-3.582,8-8v-32
	c0-4.418-3.582-8-8-8h-72v-32h56c13.684-0.47,24.413-11.914,24-25.6V24.677C480.594,11.712,470.616,0.698,457.656,0.013z
	 M136,72.013c0-22.091,17.909-40,40-40s40,17.909,40,40s-17.909,40-40,40C153.92,111.986,136.026,94.093,136,72.013z
	 M161.336,136.013h29.328c41.36,0,61.688,12.448,64.84,40H96.496C99.648,148.461,120,136.013,161.336,136.013z M48,464.013H32v-240
	h16V464.013z M288,464.013H64v-240h224V464.013z M448,240.013h-32v16h32v208H304v-240h144V240.013z M464,192.013v16H16v-16H464z
	 M384,144.013v32h-32v-32H384z M352,128.013v-48h32v48H352z M464,118.413c0.395,4.845-3.163,9.115-8,9.6h-56v-56
	c0-4.418-3.582-8-8-8h-48c-4.418,0-8,3.582-8,8v56h-56c-4.837-0.485-8.395-4.755-8-9.6V24.677c0-4.664,2.904-8.664,6.344-8.664
	h179.312c3.44,0,6.344,4,6.344,8.664V118.413z"/>
<path d="M384,240.013h16v16h-16V240.013z"/>
<path d="M360,32.013h16v16h-16V32.013z"/>
<g>
</g>
<g>
</g>
<g>
</g>
<g>
</g>
<g>
</g>
<g>
</g>
<g>
</g>
<g>
</g>
<g>
</g>
<g>
</g>
<g>
</g>
<g>
</g>
<g>
</g>
<g>
</g>
<g>
</g>
</svg>
