<svg id="Layer_1" enable-background="new 0 0 512 512" height="512" viewBox="0 0 512 512" width="512" xmlns="http://www.w3.org/2000/svg"><g><path d="m190.667 320.266v44.12l54.727-54.726c5.857-5.858 15.355-5.858 21.213 0s5.858 15.355 0 21.213l-54.727 54.727 44.12-.001c36.082 0 65.333-29.251 65.333-65.333v-65.333h-65.333c-36.082 0-65.333 29.251-65.333 65.333z"/><path d="m507.606 245.394-241-241c-5.857-5.858-15.355-5.858-21.213 0l-241 241c-4.29 4.29-5.573 10.742-3.252 16.347 2.323 5.604 7.792 9.259 13.859 9.259h49.266v226c0 8.284 6.716 15 15 15h353.466c8.284 0 15-6.716 15-15v-226h49.268c6.067 0 11.536-3.655 13.858-9.26 2.321-5.605 1.038-12.056-3.252-16.346zm-156.273 74.872c0 52.567-42.767 95.333-95.333 95.333l-74.121.001-27.74 27.74c-5.857 5.858-15.355 5.858-21.213 0s-5.858-15.355 0-21.213l27.74-27.74v-74.12c0-52.567 42.767-95.333 95.333-95.333h80.333c8.284 0 15 6.716 15 15v80.332z"/></g></svg>