<svg height="512" viewBox="0 0 512 512" width="512" xmlns="http://www.w3.org/2000/svg"><g id="Fill_out_line" data-name="Fill out line"><g fill="#ba8b5d"><path d="m48 248h32v144h-32z"/><path d="m224 248h32v144h-32z"/><path d="m424 248h32v144h-32z"/><path d="m328 248h32v144h-32z"/></g><path d="m24 392h80v48h-80z" fill="#68737f"/><path d="m200 392h80v48h-80z" fill="#68737f"/><path d="m280 392h200v48h-200z" fill="#4f5761"/><path d="m104 392h96v48h-96z" fill="#4f5761"/><path d="m376 88 112 160h-464l112-160z" fill="#e8d0b3"/><path d="m168 88 112 160h-256l112-160z" fill="#fae7cb"/><path d="m120 88 32-32 32 32z" fill="#e8d0b3"/><path d="m360 56 32 32h-208l-32-32z" fill="#dec2a6"/><path d="m494.55371 243.41211-103.18848-147.41211h.63477a8.00066 8.00066 0 0 0 5.65723-13.65723l-32-32a8.00235 8.00235 0 0 0 -5.65723-2.34277h-208l-.01807.00146a8.02957 8.02957 0 0 0 -1.04272.07813c-.08276.011-.1648.022-.24683.03564a7.96929 7.96929 0 0 0 -1.01855.23169c-.0271.00806-.05274.01929-.07959.02784a7.95719 7.95719 0 0 0 -.92041.35766c-.062.02857-.124.05615-.1853.08594a7.95967 7.95967 0 0 0 -.92847.52734l-.02075.01538a8.01784 8.01784 0 0 0 -.7959.61988c-.06665.0581-.13184.11694-.19653.17724-.06739.063-.13843.11914-.20411.18457l-32 32a8.00066 8.00066 0 0 0 5.65723 13.65723h.63477l-103.18848 147.41211a8.00015 8.00015 0 0 0 6.55371 12.58789h16v128h-16a8.00039 8.00039 0 0 0 -8 8v48a8.00039 8.00039 0 0 0 8 8h152v-16h-8v-16h-16v16h-16v-16h-16v16h-8v-32h24v16h16v-16h24v-16h-88v-128h128v128h-16a8.00039 8.00039 0 0 0 -8 8v48a8.00039 8.00039 0 0 0 8 8h280a8.00039 8.00039 0 0 0 8-8v-48a8.00039 8.00039 0 0 0 -8-8h-16v-128h24a8.00015 8.00015 0 0 0 6.55371-12.58789zm-121.86719-163.41211h-185.37207l-16-16h185.37207zm-220.687-12.686 12.68603 12.686h-25.37207zm-11.83424 28.686h23.66944l100.80005 144h-225.26954zm227.83472 288v-128h48v128zm-16 0h-16v-128h16zm-32 0h-56v-128h56zm-224 48h-32v-16h-16v16h-16v-32h32v16h16v-16h16zm-24-48h-16v-128h16zm160-128h16v128h-16zm-24 144h32v16h16v-16h16v32h-32v-16h-16v16h-16zm264 32h-32v-16h-16v16h-16v-16h-16v16h-16v-16h-16v16h-16v-16h-16v16h-16v-16h-16v16h-8v-32h24v16h16v-16h16v16h16v-16h16v16h16v-16h16v16h16v-16h16v16h16v-16h16zm-24-48h-16v-128h16zm-163.83472-144-100.8-144h188.46944l100.80005 144z"/></g></svg>