<svg id="Capa_1" enable-background="new 0 0 512 512" height="512" viewBox="0 0 512 512" width="512" xmlns="http://www.w3.org/2000/svg"><g><path d="m142.224 181.41-90.001 280c-3.112 9.683 4.11 19.59 14.28 19.59h38.992c6.516 0 12.286-4.207 14.28-10.41l90.001-280c3.112-9.683-4.11-19.59-14.28-19.59h-38.992c-6.516 0-12.286 4.207-14.28 10.41z" fill="#734536"/><path d="m369.776 181.41 90.001 280c3.112 9.683-4.11 19.59-14.28 19.59h-38.992c-6.516 0-12.286-4.207-14.28-10.41l-90.001-280c-3.112-9.683 4.11-19.59 14.28-19.59h38.992c6.516 0 12.286 4.207 14.28 10.41z" fill="#4f2e26"/><path d="m256 141c-38.599 0-70-31.402-70-70v-5c0-8.284 6.716-15 15-15h110c8.284 0 15 6.716 15 15v5c0 38.598-31.401 70-70 70z" fill="#f5f0eb"/><path d="m311 51h-55v90c38.599 0 70-31.402 70-70v-5c0-8.284-6.716-15-15-15z" fill="#ebe1dc"/><path d="m156 141h-80v-95c0-8.284 6.716-15 15-15h50c8.284 0 15 6.716 15 15z" fill="#f5f0eb"/><path d="m436 141h-80v-95c0-8.284 6.716-15 15-15h50c8.284 0 15 6.716 15 15z" fill="#ebe1dc"/><path d="m447 201h-380c-8.284 0-15-6.716-15-15v-40c0-8.284 6.716-15 15-15h380c8.284 0 15 6.716 15 15v40c0 8.284-6.716 15-15 15z" fill="#9d5e4a"/><path d="m447 131h-191v70h191c8.284 0 15-6.716 15-15v-40c0-8.284-6.716-15-15-15z" fill="#734536"/><path d="m497 361h-482c-8.284 0-15-6.716-15-15v-40c0-8.284 6.716-15 15-15h482c8.284 0 15 6.716 15 15v40c0 8.284-6.716 15-15 15z" fill="#9d5e4a"/><path d="m497 291h-241v70h241c8.284 0 15-6.716 15-15v-40c0-8.284-6.716-15-15-15z" fill="#734536"/></g></svg>