<svg id="Capa_1" enable-background="new 0 0 512 512" height="512" viewBox="0 0 512 512" width="512" xmlns="http://www.w3.org/2000/svg"><g><path d="m497 159.958v-30h-302v30h60.5v41.479h-60.5v30h60.5v41.479h-60.5v30h60.5v41.479h-60.5v30h60.5v41.479h-60.5v30h302v-30h-60.5v-41.479h60.5v-30h-60.5v-41.479h60.5v-30h-60.5v-41.479h60.5v-30h-60.5v-41.479zm-211.5 0h45.5v41.479h-45.5zm0 71.48h45.5v41.479h-45.5zm0 71.479h45.5v41.479h-45.5zm0 71.479h45.5v41.479h-45.5zm121 41.479h-45.5v-41.479h45.5zm0-71.479h-45.5v-41.479h45.5zm0-71.479h-45.5v-41.479h45.5zm0-71.479h-45.5v-41.479h45.5z" fill="#d4e4e4"/><g><path d="m0 111.208v229.667h104.999v-253.375z" fill="#a5e887"/><path d="m210 111.208-105-23.708-.001 253.375h105.001z" fill="#6fbf6b"/></g><g><path d="m105 415.875h-90v-30h90l10 15z" fill="#895140"/></g><g><path d="m105 385.875h90v30h-90z" fill="#724435"/></g><g><path d="m104.999 26.042-104.999 85.166h105l20-37.541-20-47.625z" fill="#e38651"/><path d="m105 26.042v85.166h105z" fill="#dd4e4e"/></g><g><path d="m75 239.958v100.917h29.999l10-62.208-10-68.708c-16.568 0-29.999 13.431-29.999 29.999z" fill="#6fbf6b"/><path d="m135 239.958c0-16.568-13.431-30-30-30s0 0-.001 0v130.917h30.001z" fill="#009959"/></g><g><path d="m0 340.875h30v145.083h-30z" fill="#b2705b"/></g><g><path d="m180 340.875h30v145.083h-30z" fill="#895140"/></g><g><path d="m482 96.208h30v389.75h-30z" fill="#895140"/></g></g></svg>