<?xml version="1.0" encoding="iso-8859-1"?>
<!-- Generator: Adobe Illustrator 19.0.0, SVG Export Plug-In . SVG Version: 6.00 Build 0)  -->
<svg version="1.1" id="Capa_1" xmlns="http://www.w3.org/2000/svg" xmlns:xlink="http://www.w3.org/1999/xlink" x="0px" y="0px"
	 viewBox="0 0 512 512" style="enable-background:new 0 0 512 512;" xml:space="preserve">
<g>
	<g>
		<circle style="fill:#3F5C6C;" cx="128" cy="430.933" r="42.667"/>
		<circle style="fill:#3F5C6C;" cx="384" cy="430.933" r="42.667"/>
	</g>
	<polygon style="fill:#46B29D;" points="486.4,302.933 486.4,413.867 443.733,430.933 68.267,430.933 25.6,413.867 25.6,302.933 
		34.133,294.4 	"/>
	<g>
		<path style="fill:#14A085;" d="M128,345.6H76.8c-4.713,0-8.533-3.82-8.533-8.533s3.821-8.533,8.533-8.533H128
			c4.713,0,8.533,3.82,8.533,8.533S132.713,345.6,128,345.6z"/>
		<path style="fill:#14A085;" d="M128,371.2H76.8c-4.713,0-8.533-3.82-8.533-8.533s3.821-8.533,8.533-8.533H128
			c4.713,0,8.533,3.82,8.533,8.533S132.713,371.2,128,371.2z"/>
		<path style="fill:#14A085;" d="M452.267,482.133H8.533c-4.713,0-8.533-3.82-8.533-8.533s3.821-8.533,8.533-8.533h443.733
			c4.713,0,8.533,3.821,8.533,8.533S456.98,482.133,452.267,482.133z"/>
		<path style="fill:#14A085;" d="M503.467,482.133H486.4c-4.713,0-8.533-3.82-8.533-8.533s3.82-8.533,8.533-8.533h17.067
			c4.713,0,8.533,3.821,8.533,8.533S508.18,482.133,503.467,482.133z"/>
		<path style="fill:#14A085;" d="M187.733,430.933h-115.2l17.92-23.893c4.833-6.448,12.422-10.243,20.48-10.24h38.4
			c8.058-0.003,15.647,3.792,20.48,10.24L187.733,430.933z"/>
		<path style="fill:#14A085;" d="M439.467,430.933h-115.2l17.92-23.893c4.833-6.448,12.422-10.243,20.48-10.24h38.4
			c8.058-0.003,15.647,3.792,20.48,10.24L439.467,430.933z"/>
	</g>
	<g>
		<path style="fill:#D1D4D1;" d="M68.267,430.933C68.198,440.331,60.597,447.932,51.2,448H25.6
			c-9.414-0.028-17.039-7.653-17.067-17.067c-0.024-4.528,1.793-8.871,5.035-12.032c3.161-3.241,7.504-5.059,12.032-5.035h25.6
			C60.614,413.894,68.239,421.519,68.267,430.933z"/>
		<path style="fill:#D1D4D1;" d="M503.467,430.933c-0.068,9.397-7.669,16.998-17.067,17.067h-25.6
			c-9.414-0.028-17.039-7.653-17.067-17.067c0.068-9.397,7.669-16.999,17.067-17.067h25.6
			C495.814,413.894,503.439,421.519,503.467,430.933z"/>
	</g>
	<rect x="128" y="46.933" style="fill:#41767F;" width="204.8" height="119.467"/>
	<path style="fill:#D1D4D1;" d="M486.4,302.933v110.933c0-56.576-45.824-110.933-102.4-110.933H25.6V192
		c-0.584-5.689-0.383-11.432,0.597-17.067l7.936-8.533H435.2v8.533C467.214,209.985,485.409,255.472,486.4,302.933z"/>
	<g>
		<path style="fill:#67B9CC;" d="M422.827,268.8h-98.56c-4.707-0.014-8.519-3.826-8.533-8.533V217.6
			c0.014-4.707,3.826-8.519,8.533-8.533h83.968c6.141-0.015,11.815,3.279,14.848,8.619l14.592,25.6
			c3.013,5.285,2.984,11.775-0.076,17.034C434.539,265.577,428.911,268.809,422.827,268.8z"/>
		<path style="fill:#67B9CC;" d="M213.333,209.067h59.733c4.713,0,8.533,3.821,8.533,8.533v42.667c0,4.713-3.82,8.533-8.533,8.533
			h-59.733c-4.713,0-8.533-3.821-8.533-8.533V217.6C204.8,212.887,208.621,209.067,213.333,209.067z"/>
		<path style="fill:#67B9CC;" d="M102.4,209.067h59.733c4.713,0,8.533,3.821,8.533,8.533v42.667c0,4.713-3.821,8.533-8.533,8.533
			H102.4c-4.713,0-8.533-3.821-8.533-8.533V217.6C93.867,212.887,97.687,209.067,102.4,209.067z"/>
	</g>
	<path style="fill:#46B29D;" d="M452.096,174.933H25.6c2.987-17.664,14.933-42.667,59.136-42.667h290.133
		c7.376-0.021,14.732,0.78,21.931,2.389C416.683,139.008,452.096,150.357,452.096,174.933z"/>
	<rect x="384" y="209.067" style="fill:#41767F;" width="17.067" height="59.733"/>
	<path style="fill:#46B29D;" d="M358.4,81.067h-256V64c-0.003-9.054,3.593-17.737,9.995-24.139
		c6.402-6.402,15.085-9.997,24.139-9.995H307.2C335.468,29.889,358.378,52.799,358.4,81.067z"/>
	<g>
		<path style="fill:#67B9CC;" d="M145.067,106.667c-0.014,4.707-3.826,8.519-8.533,8.533H128V98.133h8.533
			C141.24,98.147,145.053,101.96,145.067,106.667z"/>
		<path style="fill:#67B9CC;" d="M332.8,98.133V115.2h-8.533c-4.713,0-8.533-3.82-8.533-8.533c0-4.713,3.821-8.533,8.533-8.533
			H332.8z"/>
		<path style="fill:#67B9CC;" d="M221.867,115.2h-51.2c-4.713,0-8.533-3.82-8.533-8.533c0-4.713,3.821-8.533,8.533-8.533h51.2
			c4.713,0,8.533,3.821,8.533,8.533C230.4,111.38,226.579,115.2,221.867,115.2z"/>
	</g>
</g>
<g>
</g>
<g>
</g>
<g>
</g>
<g>
</g>
<g>
</g>
<g>
</g>
<g>
</g>
<g>
</g>
<g>
</g>
<g>
</g>
<g>
</g>
<g>
</g>
<g>
</g>
<g>
</g>
<g>
</g>
</svg>
