<svg height="512" viewBox="0 0 60 60" width="512" xmlns="http://www.w3.org/2000/svg"><g id="Page-1" fill="none" fill-rule="evenodd"><g id="023---Sign-Post" fill-rule="nonzero"><path id="Shape" d="m59 50v3l-5.93 1.63c-.8670332.2399868-1.7829668.2399868-2.65 0l-4.6-1.26c-.8704017-.2401798-1.7895983-.2401798-2.66 0l-4.59 1.26c-.8704017.2401798-1.7895983.2401798-2.66 0l-4.59-1.26c-.8704017-.2401798-1.7895983-.2401798-2.66 0l-4.59 1.26c-.8704017.2401798-1.7895983.2401798-2.66 0l-4.59-1.26c-.8704017-.2401798-1.7895983-.2401798-2.66 0l-4.58 1.26c-.87040172.2401798-1.78959828.2401798-2.66 0l-5.92-1.63v-3c0-.5522847.44771525-1 1-1h56c.5522847 0 1 .4477153 1 1z" fill="#60a917"/><path id="Shape" d="m58 49h-3c.5522847 0 1 .4477153 1 1v3l-5.755 1.582.175.048c.8670332.2399868 1.7829668.2399868 2.65 0l5.93-1.63v-3c0-.5522847-.4477153-1-1-1z" fill="#549414"/><path id="Shape" d="m59 53v5c0 .5522847-.4477153 1-1 1h-56c-.55228475 0-1-.4477153-1-1v-5l5.92 1.63c.87040172.2401798 1.78959828.2401798 2.66 0l4.58-1.26c.8704017-.2401798 1.7895983-.2401798 2.66 0l4.59 1.26c.8704017.2401798 1.7895983.2401798 2.66 0l4.59-1.26c.8704017-.2401798 1.7895983-.2401798 2.66 0l4.59 1.26c.8704017.2401798 1.7895983.2401798 2.66 0l4.59-1.26c.8704017-.2401798 1.7895983-.2401798 2.66 0l4.6 1.26c.8670332.2399868 1.7829668.2399868 2.65 0z" fill="#91562d"/><path id="Shape" d="m56 53.825v4.175c0 .5522847-.4477153 1-1 1h3c.5522847 0 1-.4477153 1-1v-5z" fill="#6d4122"/><path id="Shape" d="m23 44h14c1.1045695 0 2 .8954305 2 2v3h-18v-3c0-1.1045695.8954305-2 2-2z" fill="#7f8e94"/><path id="Shape" d="m37 44h-3c1.1045695 0 2 .8954305 2 2v3h3v-3c0-1.1045695-.8954305-2-2-2z" fill="#545c60"/><path id="Rectangle-path" d="m28 18h4v5h-4z" fill="#a0522d"/><path id="Shape" d="m28 6v-3c0-1.1045695.8954305-2 2-2s2 .8954305 2 2v3z" fill="#a0522d"/><path id="Rectangle-path" d="m28 35h4v9h-4z" fill="#a0522d"/><path id="Shape" d="m44.333 18h-19.333c-1.1045695 0-2-.8954305-2-2v-8c0-1.1045695.8954305-2 2-2h19.333c.4768161.00024196.9378582.17082752 1.3.481l4.667 4c.4436324.3799686.6989854.9348889.6989854 1.519s-.255353 1.1390314-.6989854 1.519l-4.667 4c-.3621418.3101725-.8231839.480758-1.3.481z" fill="#ffdc00"/><path id="Shape" d="m50.3 10.481-4.667-4c-.3621418-.31017248-.8231839-.48075804-1.3-.481h-3c.4768161.00024196.9378582.17082752 1.3.481l4.667 4c.4432826.3799643.6984018.9346573.6984018 1.5185s-.2551192 1.1385357-.6984018 1.5185l-4.667 4c-.3619999.3105338-.8230567.4814795-1.3.482h3c.4769433-.0005205.9380001-.1714662 1.3-.482l4.667-4c.4432826-.3799643.6984018-.9346573.6984018-1.5185s-.2551192-1.1385357-.6984018-1.5185z" fill="#fec108"/><path id="Shape" d="m15.667 35h19.333c1.1045695 0 2-.8954305 2-2v-8c0-1.1045695-.8954305-2-2-2h-19.333c-.4769433.0005205-.9380001.1714662-1.3.482l-4.667 4c-.44328256.3799643-.69840185.9346573-.69840185 1.5185s.25511929 1.1385357.69840185 1.5185l4.667 4c.3621418.3101725.8231839.480758 1.3.481z" fill="#ffdc00"/><path id="Shape" d="m35 23h-3c1.1045695 0 2 .8954305 2 2v8c0 1.1045695-.8954305 2-2 2h3c1.1045695 0 2-.8954305 2-2v-8c0-1.1045695-.8954305-2-2-2z" fill="#fec108"/><g fill="#000"><path id="Shape" d="m59.023 47c.5522847-.0063513.9948512-.4592153.9885-1.0115-.0063513-.5522847-.4592153-.9948513-1.0115-.9885-.5392743.0305436-1.0636191.1885325-1.53.461.2495164-1.4161667.9872343-2.7001851 2.085-3.629.4595009-.306518.583518-.9274991.277-1.387s-.9274991-.583518-1.387-.277c-1.714 1.143-2.574 3.3-3.007 5.2-.6122519-.5773206-1.3337157-1.0264505-2.122-1.321-.3394023-.1139677-.713824-.0382093-.9822241.1987379s-.3900022.5990851-.319.95.3238218.6372944.6632241.7512621c.9622023.3640018 1.7336123 1.1057839 2.135 2.053h-14.813v-2c0-1.6568542-1.3431458-3-3-3h-4v-7h2c1.6568542 0 3-1.3431458 3-3v-8c0-1.6568542-1.3431458-3-3-3h-2v-3h11.333c.7163198.0002135 1.4090745-.2558893 1.953-.722l4.667-4c.6650987-.5699486 1.0478945-1.4021018 1.0478945-2.278s-.3827958-1.7080514-1.0478945-2.278l-4.667-4c-.5439255-.46611069-1.2366802-.72221354-1.953-.722h-11.333v-2c0-1.65685425-1.3431458-3-3-3s-3 1.34314575-3 3v2h-2c-1.6568542 0-3 1.34314575-3 3v8c0 1.6568542 1.3431458 3 3 3h2v3h-11.333c-.7163198-.0002135-1.4090745.2558893-1.953.722l-4.667 4c-.66509872.5699486-1.04789447 1.4021018-1.04789447 2.278s.38279575 1.7080514 1.04789447 2.278l4.667 4c.5439255.4661107 1.2366802.7222135 1.953.722h11.333v7h-4c-1.6568542 0-3 1.3431458-3 3v2h-14.813c.40138769-.9472161 1.17279774-1.6889982 2.135-2.053.52467051-.1761788.80717884-.7443295.631-1.269s-.74432949-.8071788-1.269-.631c-.7882843.2945495-1.50974808.7436794-2.122 1.321-.433-1.9-1.293-4.061-3.007-5.2-.29724497-.1982824-.67769305-.2229246-.99803314-.0646441-.32034008.1582805-.53190488.4754371-.555.832-.02309511.3565629.14578817.6983617.44303314.8966441 1.09541829.9293199 1.83153749 2.2123109 2.081 3.627-.46530704-.2713039-.98823438-.4285933-1.526-.459-.53774929.0015639-.97528492.4333191-.984.971-.00839074.5440716.41374911.9979712.957 1.029.59804058.1109454 1.11859967.475738 1.427 1h-.4c-1.1045695 0-2 .8954305-2 2v8c0 1.1045695.8954305 2 2 2h56c1.1045695 0 2-.8954305 2-2v-8c0-1.1045695-.8954305-2-2-2h-.4c.3098613-.5211594.8276784-.8850506 1.423-1zm-30.023-44c0-.55228475.4477153-1 1-1s1 .44771525 1 1v2h-2zm-5 13v-8c0-.55228475.4477153-1 1-1h19.333c.2388157.00002164.4697389.08550933.651.241l4.667 4c.2214665.1899799.3489094.4672128.3489094.759s-.1274429.5690201-.3489094.759l-4.667 4c-.1812611.1554907-.4121843.2409784-.651.241h-19.333c-.5522847 0-1-.4477153-1-1zm5 3h2v3h-2zm-13.984 14.759-4.667-4c-.2214665-.1899799-.3489094-.4672128-.3489094-.759s.1274429-.5690201.3489094-.759l4.667-4c.1812611-.1554907.4121843-.2409784.651-.241h19.333c.5522847 0 1 .4477153 1 1v8c0 .5522847-.4477153 1-1 1h-19.333c-.2388157-.0000216-.4697389-.0855093-.651-.241zm13.984 2.241h2v7h-2zm-7 10c0-.5522847.4477153-1 1-1h14c.5522847 0 1 .4477153 1 1v2h-16zm-20 12v-3.687l4.651 1.287c1.04448207.2882158 2.14751793.2882158 3.192 0l4.587-1.266c.6964752-.1910047 1.4315248-.1910047 2.128 0l4.588 1.266c1.0441675.2880318 2.1468325.2880318 3.191 0l4.59-1.266c.6960068-.1919599 1.4309932-.1919599 2.127 0l4.592 1.266c1.0444821.2882158 2.1475179.2882158 3.192 0l4.59-1.266c.6960068-.1919599 1.4309932-.1919599 2.127 0l4.6 1.267c1.0436723.286673 2.1453277.286673 3.189 0l4.656-1.288v3.687zm56-5.761-5.191 1.431c-.6957326.1914782-1.4302674.1914782-2.126 0l-4.6-1.267c-1.0441675-.2880318-2.1468325-.2880318-3.191 0l-4.59 1.266c-.6960068.1919599-1.4309932.1919599-2.127 0l-4.589-1.269c-1.0441675-.2880318-2.1468325-.2880318-3.191 0l-4.589 1.266c-.6963214.1921438-1.4316786.1921438-2.128 0l-4.588-1.266c-1.0444821-.2882158-2.1475179-.2882158-3.192 0l-4.587 1.269c-.69647521.1910047-1.43152479.1910047-2.128 0l-5.183-1.43v-2.239h56z"/><path id="Shape" d="m28 11h14c.5522847 0 1-.4477153 1-1 0-.55228475-.4477153-1-1-1h-14c-.5522847 0-1 .44771525-1 1 0 .5522847.4477153 1 1 1z"/><path id="Shape" d="m35 15c.5522847 0 1-.4477153 1-1s-.4477153-1-1-1h-7c-.5522847 0-1 .4477153-1 1s.4477153 1 1 1z"/><path id="Shape" d="m18 28h14c.5522847 0 1-.4477153 1-1s-.4477153-1-1-1h-14c-.5522847 0-1 .4477153-1 1s.4477153 1 1 1z"/><path id="Shape" d="m25 30h-7c-.5522847 0-1 .4477153-1 1s.4477153 1 1 1h7c.5522847 0 1-.4477153 1-1s-.4477153-1-1-1z"/></g></g></g></svg>