<svg id="Layer_3" enable-background="new 0 0 64 64" height="512" viewBox="0 0 64 64" width="512" xmlns="http://www.w3.org/2000/svg"><g><g><path d="m57 50-3.979 4.775c-.66.792-1.021 1.79-1.021 2.82 0 2.433 1.972 4.405 4.405 4.405h1.19c2.433 0 4.405-1.972 4.405-4.405 0-1.031-.361-2.028-1.021-2.82z" fill="#c7e2fc"/></g><g><path d="m53.021 54.775c-.66.792-1.021 1.79-1.021 2.82 0 2 1.341 3.669 3.167 4.207 2.257-2.087 3.678-5.063 3.678-8.379 0-.442-.031-.876-.08-1.304l-1.765-2.119z" fill="#ebf7fe"/></g><g><path d="m50 40h12v4h-12z" fill="#8a8275"/></g><g><path d="m48 8h-19v-6h19c1.657 0 3 1.343 3 3 0 1.657-1.343 3-3 3z" fill="#cbc3b6"/></g><g><path d="m29 2v6h5.063c1.661-1.545 2.795-3.641 3.116-6z" fill="#e7e4dd"/></g><g><path d="m33 8h6v8h-6z" fill="#8a8275"/></g><g><path d="m29 16h14v4h-14z" fill="#cbc3b6"/></g><g><path d="m23 32h25c1.105 0 2 .895 2 2v6h12v-10c0-5.523-4.477-10-10-10h-29z" fill="#cbc3b6"/></g><g><path d="m51.565 20h-28.565v12h22.229c3.183-3.227 5.438-7.371 6.336-12z" fill="#e7e4dd"/></g><g><path d="m3 12h10v28h-10z" fill="#243242"/></g><g><path d="m3 32.658c3.746-.661 7.164-2.265 10-4.565v-16.093h-10z" fill="#4d5d7a"/></g><g><path d="m13 18h10v20h-10z" fill="#f19846"/></g><g><path d="m13 28.093c3.21-2.603 5.668-6.091 7.011-10.093h-7.011z" fill="#f5ba5b"/></g><g><path d="m8 12v-4c0-3.314-2.686-6-6-6v4c0 3.314 2.686 6 6 6z" fill="#739937"/></g><g><path d="m8 12v-4c0-3.314 2.686-6 6-6v4c0 3.314-2.686 6-6 6z" fill="#536d26"/></g><g><path d="m62 41h-12c-.552 0-1-.447-1-1v-6c0-.552-.449-1-1-1h-25v-2h25c1.654 0 3 1.346 3 3v5h10v-9c0-4.962-4.038-9-9-9h-29v-2h29c6.065 0 11 4.935 11 11v10c0 .553-.448 1-1 1z"/></g><g><path d="m13 41h-10c-.552 0-1-.447-1-1v-28c0-.552.448-1 1-1h10c.552 0 1 .448 1 1v28c0 .553-.448 1-1 1zm-9-2h8v-26h-8z"/></g><g><path d="m57.595 63h-1.189c-2.981 0-5.406-2.425-5.406-5.405 0-1.262.445-2.49 1.252-3.46l3.979-4.775c.38-.455 1.156-.455 1.536 0l3.979 4.774c.809.97 1.254 2.199 1.254 3.461 0 2.98-2.425 5.405-5.405 5.405zm-.595-11.438-3.211 3.854c-.509.609-.789 1.384-.789 2.179 0 1.878 1.528 3.405 3.405 3.405h1.189c1.878 0 3.406-1.527 3.406-3.405 0-.795-.28-1.569-.79-2.181z"/></g><g><path d="m44 20h-2v-3h-12v3h-2v-4c0-.552.448-1 1-1h14c.552 0 1 .448 1 1z"/></g><g><path d="m40 16h-2v-7h-4v7h-2v-8c0-.552.448-1 1-1h6c.552 0 1 .448 1 1z"/></g><g><path d="m48 9h-19c-.552 0-1-.448-1-1v-6c0-.552.448-1 1-1h19c2.206 0 4 1.794 4 4s-1.794 4-4 4zm-18-2h18c1.103 0 2-.897 2-2s-.897-2-2-2h-18z"/></g><g><path d="m62 45h-12c-.552 0-1-.447-1-1v-4h2v3h10v-3h2v4c0 .553-.448 1-1 1z"/></g><g><path d="m8 13c-.552 0-1-.448-1-1v-4c0-3.86 3.14-7 7-7 .552 0 1 .448 1 1v4c0 3.86-3.14 7-7 7zm5-9.899c-2.279.464-4 2.484-4 4.899v2.899c2.279-.464 4-2.485 4-4.899z"/></g><g><path d="m8 13c-3.86 0-7-3.14-7-7v-4c0-.552.448-1 1-1 3.86 0 7 3.14 7 7v4c0 .552-.448 1-1 1zm-5-9.899v2.899c0 2.415 1.721 4.435 4 4.899v-2.899c0-2.415-1.721-4.435-4-4.899z"/></g><g><path d="m23 39h-10c-.552 0-1-.447-1-1v-20c0-.552.448-1 1-1h10c.552 0 1 .448 1 1v20c0 .553-.448 1-1 1zm-9-2h8v-18h-8z"/></g></g></svg>